<?xml version="1.0" encoding="UTF-8"?>
<svg xmlns="http://www.w3.org/2000/svg" xmlns:xlink="http://www.w3.org/1999/xlink" viewBox="0 0 50 50" width="50px" height="50px">
<g id="surface20222198">
<rect x="0" y="0" width="0" height="0" style="fill:rgb(35.686275%,25.882354%,22.352941%);fill-opacity:1;stroke:none;"/>
<path style=" stroke:none;fill-rule:nonzero;fill:rgb(68.627453%,52.549022%,0%);fill-opacity:1;" d="M 25 4.167969 C 24.445312 4.167969 23.910156 4.390625 23.519531 4.785156 L 2.507812 23.121094 C 2.242188 23.316406 2.082031 23.628906 2.082031 23.957031 C 2.082031 24.535156 2.550781 25 3.125 25 L 8.332031 25 L 8.332031 41.667969 C 8.332031 42.816406 9.265625 43.75 10.417969 43.75 L 18.75 43.75 C 19.898438 43.75 20.832031 42.816406 20.832031 41.667969 L 20.832031 29.167969 L 29.167969 29.167969 L 29.167969 41.667969 C 29.167969 42.816406 30.101562 43.75 31.25 43.75 L 39.582031 43.75 C 40.734375 43.75 41.667969 42.816406 41.667969 41.667969 L 41.667969 25 L 46.875 25 C 47.449219 25 47.917969 24.535156 47.917969 23.957031 C 47.917969 23.628906 47.757812 23.316406 47.492188 23.121094 L 26.492188 4.796875 C 26.488281 4.792969 26.484375 4.789062 26.480469 4.785156 C 26.089844 4.390625 25.554688 4.167969 25 4.167969 Z M 25 4.167969 "/>
</g>
</svg>
